<svg width="24" height="25" viewBox="0 0 24 25" fill="none" xmlns="http://www.w3.org/2000/svg">
<g id="carbon:location-filled">
<path id="Vector" d="M12 2.21143C9.81276 2.21401 7.71584 3.08403 6.16923 4.63064C4.62261 6.17726 3.75259 8.27418 3.75001 10.4614C3.74739 12.2488 4.33124 13.9878 5.41201 15.4114C5.41201 15.4114 5.63701 15.7077 5.67376 15.7504L12 23.2114L18.3293 15.7467C18.3623 15.7069 18.588 15.4114 18.588 15.4114L18.5888 15.4092C19.669 13.9861 20.2526 12.248 20.25 10.4614C20.2474 8.27418 19.3774 6.17726 17.8308 4.63064C16.2842 3.08403 14.1873 2.21401 12 2.21143ZM12 13.4614C11.4067 13.4614 10.8266 13.2855 10.3333 12.9558C9.83995 12.6262 9.45543 12.1577 9.22837 11.6095C9.00131 11.0613 8.9419 10.4581 9.05765 9.87615C9.17341 9.29421 9.45913 8.75966 9.87869 8.34011C10.2982 7.92055 10.8328 7.63483 11.4147 7.51907C11.9967 7.40331 12.5999 7.46272 13.1481 7.68979C13.6962 7.91685 14.1648 8.30137 14.4944 8.79472C14.8241 9.28806 15 9.86808 15 10.4614C14.999 11.2568 14.6826 12.0193 14.1202 12.5816C13.5578 13.144 12.7954 13.4604 12 13.4614Z" fill="white"/>
</g>
</svg>
